<?xml version="1.0" encoding="UTF-8"?>
<svg version="1.1" xmlns="http://www.w3.org/2000/svg" width="2116" height="2116">
<path d="M0 0 C698.28 0 1396.56 0 2116 0 C2116 698.28 2116 1396.56 2116 2116 C1417.72 2116 719.44 2116 0 2116 C0 1417.72 0 719.44 0 0 Z " fill="#442EE0" transform="translate(0,0)"/>
<path d="M0 0 C1.25545745 -0.00175304 2.51091489 -0.00350607 3.80441651 -0.00531223 C7.29294808 -0.01003753 10.78145352 -0.00854208 14.26998637 -0.00603446 C18.06404236 -0.0044009 21.85809278 -0.00854265 25.652147 -0.01194364 C32.30330026 -0.01709836 38.95444625 -0.01851471 45.60560131 -0.01748753 C55.49660247 -0.01596372 65.38759556 -0.02012195 75.27859515 -0.02536215 C93.97345469 -0.03503965 112.66831148 -0.03784657 131.36317322 -0.03841921 C145.80316669 -0.03887863 160.24315908 -0.04093632 174.6831522 -0.04411983 C178.83872213 -0.04501738 182.99429206 -0.04590719 187.14986199 -0.04679471 C188.69948727 -0.04712628 188.69948727 -0.04712628 190.28041811 -0.04746456 C219.34611736 -0.0536202 248.41181624 -0.05756499 277.47751617 -0.05712128 C278.57368244 -0.0571057 279.66984871 -0.05709012 280.79923214 -0.05707407 C286.35511259 -0.05699096 291.91099305 -0.05689192 297.4668735 -0.05678936 C299.12200846 -0.05675944 299.12200846 -0.05675944 300.81058048 -0.05672892 C303.0419744 -0.05668848 305.27336832 -0.05664669 307.50476225 -0.05660353 C342.20680089 -0.05599103 376.90882975 -0.06349197 411.61086559 -0.07717609 C450.59707897 -0.09254326 489.58328593 -0.10114189 528.56950253 -0.10021287 C532.72853037 -0.10013824 536.8875582 -0.10008953 541.04658604 -0.10005856 C542.58267385 -0.10004107 542.58267385 -0.10004107 544.14979373 -0.10002324 C560.61785172 -0.09999249 577.08590121 -0.10637403 593.55395668 -0.11499082 C610.11344443 -0.12347605 626.67291978 -0.12445048 643.2324085 -0.1178815 C653.06451545 -0.1141913 662.89658468 -0.11600231 672.72868762 -0.12582384 C679.30522082 -0.13183692 685.88172678 -0.13051363 692.45825875 -0.12335334 C696.1996085 -0.11948296 699.94088539 -0.11866382 703.68222991 -0.12681069 C760.7268999 -0.24244442 760.7268999 -0.24244442 780.03835583 17.94113445 C789.24198708 27.63403921 798.36953372 38.96271566 801.60085583 52.12863445 C801.7755238 52.784445 801.95019176 53.44025555 802.1301527 54.11593914 C806.35004829 70.06487111 806.30442484 84.11232284 802.60085583 100.12863445 C802.36882458 101.17277508 802.13679333 102.2169157 801.89773083 103.29269695 C798.0337003 117.95328335 789.61882557 132.0623369 780.60085583 144.12863445 C779.31864181 146.01678927 778.04858636 147.91323656 776.78835583 149.81613445 C776.12191051 150.82031414 775.4554652 151.82449383 774.76882458 152.8591032 C774.05339489 153.93804852 773.3379652 155.01699383 772.60085583 156.12863445 C770.50777174 159.27209096 768.41214717 162.41385348 766.31472301 165.5544157 C764.36701013 168.47224805 762.42683664 171.39403801 760.50319958 174.3278532 C757.21973766 179.32158752 753.84669637 184.1852143 750.22585583 188.94113445 C745.45161109 195.22736031 741.10202016 201.7522452 736.77224255 208.34738445 C735.0610133 210.94953714 733.33081925 213.53891054 731.60085583 216.12863445 C730.64179333 217.5672282 730.64179333 217.5672282 729.66335583 219.03488445 C728.98273083 220.05582195 728.30210583 221.07675945 727.60085583 222.12863445 C727.01304333 223.0103532 727.01304333 223.0103532 726.41335583 223.90988445 C723.87168916 227.72238445 721.33002249 231.53488445 718.78835583 235.34738445 C718.20054333 236.2291032 718.20054333 236.2291032 717.60085583 237.12863445 C714.93418916 241.12863445 712.26752249 245.12863445 709.60085583 249.12863445 C709.01304333 250.0103532 709.01304333 250.0103532 708.41335583 250.90988445 C707.79460583 251.83800945 707.79460583 251.83800945 707.16335583 252.78488445 C706.74304089 253.41547771 706.32272594 254.04607098 705.88967419 254.69577312 C705.03156378 255.98269491 704.17300363 257.26931694 703.31399059 258.55563641 C701.36645304 261.473017 699.4265772 264.3944337 697.50319958 267.3278532 C694.21973766 272.32158752 690.84669637 277.1852143 687.22585583 281.94113445 C682.45161109 288.22736031 678.10202016 294.7522452 673.77224255 301.34738445 C672.0610133 303.94953714 670.33081925 306.53891054 668.60085583 309.12863445 C667.96148083 310.08769695 667.32210583 311.04675945 666.66335583 312.03488445 C665.98273083 313.05582195 665.30210583 314.07675945 664.60085583 315.12863445 C664.20898083 315.71644695 663.81710583 316.30425945 663.41335583 316.90988445 C660.87168916 320.72238445 658.33002249 324.53488445 655.78835583 328.34738445 C655.39648083 328.93519695 655.00460583 329.52300945 654.60085583 330.12863445 C651.93418916 334.12863445 649.26752249 338.12863445 646.60085583 342.12863445 C646.20898083 342.71644695 645.81710583 343.30425945 645.41335583 343.90988445 C645.00085583 344.52863445 644.58835583 345.14738445 644.16335583 345.78488445 C643.74304089 346.41539715 643.32272594 347.04590984 642.88967419 347.69552898 C642.03126326 348.98306408 641.17270233 350.27049918 640.31399059 351.55783367 C638.3735656 354.46716736 636.43554561 357.37798507 634.50319958 360.29269695 C628.4007695 369.48880431 622.20779483 378.61531186 615.66335583 387.50363445 C611.20456969 393.5958373 607.05010658 399.87712335 602.89187145 406.17599773 C600.76298374 409.39590014 598.61873111 412.60553179 596.47585583 415.81613445 C595.63984387 417.06999106 594.80390503 418.32389643 593.96804333 419.5778532 C590.51231416 424.76144695 587.05658499 429.9450407 583.60085583 435.12863445 C583.20898083 435.71644695 582.81710583 436.30425945 582.41335583 436.90988445 C579.87168916 440.72238445 577.33002249 444.53488445 574.78835583 448.34738445 C574.39648083 448.93519695 574.00460583 449.52300945 573.60085583 450.12863445 C569.60085583 456.12863445 569.60085583 456.12863445 567.65163708 459.0466032 C566.1834303 461.25310825 564.72282048 463.46360451 563.26882458 465.6794157 C558.60260358 472.76791066 553.773812 479.6835245 548.7136488 486.49631023 C544.16572867 492.65070161 539.93739509 498.99914533 535.74001598 505.3957243 C534.03988307 507.98199593 532.32005188 510.5550083 530.60085583 513.12863445 C529.96148083 514.08769695 529.32210583 515.04675945 528.66335583 516.03488445 C527.64241833 517.5662907 527.64241833 517.5662907 526.60085583 519.12863445 C526.20898083 519.71644695 525.81710583 520.30425945 525.41335583 520.90988445 C522.87168916 524.72238445 520.33002249 528.53488445 517.78835583 532.34738445 C517.39648083 532.93519695 517.00460583 533.52300945 516.60085583 534.12863445 C513.93418916 538.12863445 511.26752249 542.12863445 508.60085583 546.12863445 C508.20898083 546.71644695 507.81710583 547.30425945 507.41335583 547.90988445 C506.79460583 548.83800945 506.79460583 548.83800945 506.16335583 549.78488445 C505.74304089 550.41547771 505.32272594 551.04607098 504.88967419 551.69577312 C504.03156378 552.98269491 503.17300363 554.26931694 502.31399059 555.55563641 C500.36645304 558.473017 498.4265772 561.3944337 496.50319958 564.3278532 C493.21973766 569.32158752 489.84669637 574.1852143 486.22585583 578.94113445 C481.45161109 585.22736031 477.10202016 591.7522452 472.77224255 598.34738445 C471.0610133 600.94953714 469.33081925 603.53891054 467.60085583 606.12863445 C466.96148083 607.08769695 466.32210583 608.04675945 465.66335583 609.03488445 C464.64241833 610.5662907 464.64241833 610.5662907 463.60085583 612.12863445 C463.20898083 612.71644695 462.81710583 613.30425945 462.41335583 613.90988445 C459.87168916 617.72238445 457.33002249 621.53488445 454.78835583 625.34738445 C454.39648083 625.93519695 454.00460583 626.52300945 453.60085583 627.12863445 C450.93418916 631.12863445 448.26752249 635.12863445 445.60085583 639.12863445 C445.20898083 639.71644695 444.81710583 640.30425945 444.41335583 640.90988445 C443.79460583 641.83800945 443.79460583 641.83800945 443.16335583 642.78488445 C442.74304089 643.41539715 442.32272594 644.04590984 441.88967419 644.69552898 C441.03126326 645.98306408 440.17270233 647.27049918 439.31399059 648.55783367 C437.3735656 651.46716736 435.43554561 654.37798507 433.50319958 657.29269695 C427.4007695 666.48880431 421.20779483 675.61531186 414.66335583 684.50363445 C410.20456969 690.5958373 406.05010658 696.87712335 401.89187145 703.17599773 C399.76298374 706.39590014 397.61873111 709.60553179 395.47585583 712.81613445 C394.63984387 714.06999106 393.80390503 715.32389643 392.96804333 716.5778532 C389.51231416 721.76144695 386.05658499 726.9450407 382.60085583 732.12863445 C382.20898083 732.71644695 381.81710583 733.30425945 381.41335583 733.90988445 C378.87168916 737.72238445 376.33002249 741.53488445 373.78835583 745.34738445 C373.39648083 745.93519695 373.00460583 746.52300945 372.60085583 747.12863445 C368.60085583 753.12863445 368.60085583 753.12863445 366.65163708 756.0466032 C365.1834303 758.25310825 363.72282048 760.46360451 362.26882458 762.6794157 C357.60260358 769.76791066 352.773812 776.6835245 347.7136488 783.49631023 C343.16572867 789.65070161 338.93739509 795.99914533 334.74001598 802.3957243 C333.03988307 804.98199593 331.32005188 807.5550083 329.60085583 810.12863445 C328.96148083 811.08769695 328.32210583 812.04675945 327.66335583 813.03488445 C326.98273083 814.05582195 326.30210583 815.07675945 325.60085583 816.12863445 C325.20898083 816.71644695 324.81710583 817.30425945 324.41335583 817.90988445 C321.87168916 821.72238445 319.33002249 825.53488445 316.78835583 829.34738445 C316.39648083 829.93519695 316.00460583 830.52300945 315.60085583 831.12863445 C312.93418916 835.12863445 310.26752249 839.12863445 307.60085583 843.12863445 C307.20898083 843.71644695 306.81710583 844.30425945 306.41335583 844.90988445 C306.00085583 845.52863445 305.58835583 846.14738445 305.16335583 846.78488445 C304.53288342 847.73077435 304.53288342 847.73077435 303.88967419 848.69577312 C303.03156378 849.98269491 302.17300363 851.26931694 301.31399059 852.55563641 C299.36645304 855.473017 297.4265772 858.3944337 295.50319958 861.3278532 C292.21973766 866.32158752 288.84669637 871.1852143 285.22585583 875.94113445 C280.45161109 882.22736031 276.10202016 888.7522452 271.77224255 895.34738445 C270.0610133 897.94953714 268.33081925 900.53891054 266.60085583 903.12863445 C265.96148083 904.08769695 265.32210583 905.04675945 264.66335583 906.03488445 C263.98273083 907.05582195 263.30210583 908.07675945 262.60085583 909.12863445 C262.20898083 909.71644695 261.81710583 910.30425945 261.41335583 910.90988445 C258.87168916 914.72238445 256.33002249 918.53488445 253.78835583 922.34738445 C253.39648083 922.93519695 253.00460583 923.52300945 252.60085583 924.12863445 C249.93418916 928.12863445 247.26752249 932.12863445 244.60085583 936.12863445 C244.20898083 936.71644695 243.81710583 937.30425945 243.41335583 937.90988445 C243.00085583 938.52863445 242.58835583 939.14738445 242.16335583 939.78488445 C241.74304089 940.41539715 241.32272594 941.04590984 240.88967419 941.69552898 C240.03126326 942.98306408 239.17270233 944.27049918 238.31399059 945.55783367 C236.3735656 948.46716736 234.43554561 951.37798507 232.50319958 954.29269695 C226.4007695 963.48880431 220.20779483 972.61531186 213.66335583 981.50363445 C209.20456969 987.5958373 205.05010658 993.87712335 200.89187145 1000.17599773 C198.76298374 1003.39590014 196.61873111 1006.60553179 194.47585583 1009.81613445 C193.63984387 1011.06999106 192.80390503 1012.32389643 191.96804333 1013.5778532 C186.78444958 1021.35324383 186.78444958 1021.35324383 181.60085583 1029.12863445 C181.20898083 1029.71644695 180.81710583 1030.30425945 180.41335583 1030.90988445 C177.87168916 1034.72238445 175.33002249 1038.53488445 172.78835583 1042.34738445 C172.39648083 1042.93519695 172.00460583 1043.52300945 171.60085583 1044.12863445 C167.60085583 1050.12863445 167.60085583 1050.12863445 165.64773083 1053.0544157 C164.19499478 1055.23629216 162.74715417 1057.42093064 161.30398083 1059.6091032 C156.27232425 1067.22094057 151.1165703 1074.72734421 145.79909801 1082.14303875 C138.99696124 1090.89155099 138.99696124 1090.89155099 135.60085583 1101.12863445 C141.99776755 1101.86158187 148.29076159 1102.27568286 154.72789478 1102.26729965 C156.02685146 1102.27156295 156.02685146 1102.27156295 157.35204969 1102.27591237 C160.24054706 1102.28420185 163.129004 1102.28552334 166.01751232 1102.28685284 C168.11903816 1102.29142423 170.2205631 1102.29642541 172.32208699 1102.30181748 C178.09730776 1102.31538148 183.87252264 1102.32281618 189.64775516 1102.32924464 C195.90198921 1102.33727389 202.15621124 1102.35096686 208.41043663 1102.36393833 C219.30969419 1102.38574555 230.2089521 1102.40391024 241.1082201 1102.4195261 C252.67755923 1102.4361083 264.24689235 1102.45468884 275.8162241 1102.47581959 C276.54205681 1102.47714329 277.26788952 1102.478467 278.01571716 1102.47983081 C280.96713601 1102.48521822 283.91855483 1102.49061752 286.86997362 1102.49603291 C316.46467763 1102.55031057 346.05938963 1102.59802801 375.65410928 1102.64286628 C379.69721146 1102.64899223 383.74031363 1102.65512525 387.78341579 1102.66126537 C388.58546243 1102.66248299 389.38750907 1102.66370061 390.21386015 1102.66495513 C407.95433741 1102.69192727 425.69481108 1102.72098144 443.43528455 1102.75031972 C521.13513358 1102.87874091 598.83499397 1102.99716859 878.16000199 1103.25074786 C888.45920921 1103.25249562 898.75841452 1103.25600995 909.05762089 1103.26047093 C922.94770824 1103.26643155 936.83778853 1103.26884918 950.72787672 1103.26429611 C957.16151898 1103.26223524 963.59515235 1103.26144779 970.02879429 1103.26477528 C975.73364437 1103.26760088 981.43847219 1103.26581655 987.14331985 1103.26000011 C989.18295498 1103.25870214 991.222592 1103.25909446 993.26222634 1103.26130784 C995.99730697 1103.26401077 998.73231155 1103.26065409 1001.4673872 1103.2556181 C1002.25942757 1103.25784864 1003.05146795 1103.26007918 1003.86750954 1103.26237732 C1007.04794055 1103.25085349 1009.56048918 1103.14209 1012.60085583 1102.12863445 C1014.22625516 1102.02565114 1015.85514394 1101.97375485 1017.48366833 1101.9528532 C1032.83087975 1101.62687484 1047.52641545 1099.99737894 1062.60085583 1097.12863445 C1063.34109997 1096.99650555 1064.08134411 1096.86437664 1064.84401989 1096.72824383 C1092.22145143 1091.76500612 1120.86005134 1080.05844077 1143.60085583 1064.12863445 C1144.32192516 1063.62783367 1145.0429945 1063.12703289 1145.78591442 1062.61105633 C1154.06587348 1056.8350681 1162.16665366 1051.0284181 1169.51882458 1044.08957195 C1171.46346993 1042.2580298 1173.47529436 1040.57373506 1175.53835583 1038.87863445 C1180.69970482 1034.38326598 1184.93585518 1029.03968714 1189.25905895 1023.75998211 C1190.50038232 1022.25078947 1191.76076235 1020.75732561 1193.02273083 1019.2653532 C1198.40141937 1012.85729496 1203.15479918 1006.21401687 1207.60085583 999.12863445 C1207.97822887 998.52873699 1208.35560192 997.92883953 1208.74441051 997.31076336 C1219.15501702 980.61201411 1228.00000197 962.84213528 1233.97878551 944.0700407 C1234.58240688 942.18621138 1235.22004016 940.31338597 1235.85866833 938.44113445 C1241.71422834 920.76397216 1245.90374053 902.56283712 1247.27663708 883.98019695 C1247.60085583 880.12863445 1247.60085583 880.12863445 1248.10354137 878.19284344 C1248.66951189 875.84366291 1248.79501313 873.66400252 1248.88210583 871.2497282 C1248.93818005 869.86817547 1248.93818005 869.86817547 1248.99538708 868.45871258 C1249.06584182 866.52642609 1249.13615374 864.59413439 1249.20632458 862.66183758 C1249.24370739 861.74209148 1249.2810902 860.82234539 1249.31960583 859.8747282 C1249.36504528 858.61680462 1249.36504528 858.61680462 1249.4114027 857.33346844 C1249.60085583 855.12863445 1249.60085583 855.12863445 1250.60085583 852.12863445 C1250.69810121 849.28686758 1250.7408024 846.47033912 1250.73366833 843.62863445 C1250.73510342 842.38049969 1250.73510342 842.38049969 1250.7365675 841.10715008 C1250.7372477 839.34868577 1250.73540455 837.59021893 1250.73122692 835.83175945 C1250.72587641 833.13899379 1250.7311773 830.44639492 1250.73757458 827.75363445 C1250.73691377 826.04530075 1250.73563255 824.33696715 1250.73366833 822.62863445 C1250.73569256 821.82232586 1250.73771679 821.01601727 1250.73980236 820.18527508 C1250.72605115 816.90958675 1250.64404195 814.25819282 1249.60085583 811.12863445 C1249.46658793 809.70740186 1249.37733713 808.28158998 1249.31960583 806.85519695 C1249.26353161 805.61769695 1249.26353161 805.61769695 1249.20632458 804.35519695 C1249.17151989 803.49668133 1249.1367152 802.6381657 1249.10085583 801.75363445 C1249.03149603 800.05817271 1248.95867808 798.36284827 1248.88210583 796.66769695 C1248.85181286 795.91697918 1248.82151989 795.16626141 1248.79030895 794.39279461 C1248.58295224 791.91466817 1248.09299915 789.56505061 1247.60085583 787.12863445 C1247.4318077 785.5048131 1247.28936395 783.87804109 1247.17116833 782.2497282 C1246.16779296 768.91086628 1246.16779296 768.91086628 1243.36648083 755.8591032 C1242.53810995 752.90486216 1241.98070539 749.95608823 1241.41335583 746.94113445 C1233.24873944 708.26663576 1214.44771002 668.34249667 1187.60085583 639.12863445 C1186.22484007 637.5670289 1184.84987499 636.00449704 1183.47585583 634.44113445 C1168.54857388 617.5008373 1149.904683 604.58455388 1130.60085583 593.12863445 C1130.00756481 592.77559246 1129.4142738 592.42255047 1128.80300426 592.05881023 C1110.47478882 581.32195043 1089.95698554 574.82619449 1069.60085583 569.12863445 C1067.87415661 568.63750164 1067.87415661 568.63750164 1066.11257458 568.13644695 C1042.05796988 561.95552866 1017.12665989 562.66382042 992.50545573 562.69272637 C988.38881792 562.69585095 984.27221336 562.6896921 980.15558034 562.68368763 C970.45705251 562.66974742 960.75861303 562.67112385 951.06008434 562.68258953 C941.06322377 562.69414662 931.0666291 562.679845 921.06980342 562.65319306 C912.45191509 562.6310804 903.83411058 562.6243861 895.21619588 562.63026947 C890.08277111 562.6336405 884.94951806 562.63121013 879.81611729 562.61401844 C875.01000877 562.59861517 870.20430002 562.60243047 865.39820766 562.62132359 C863.63369799 562.62502343 861.86915901 562.62186062 860.10467625 562.6114378 C857.70243758 562.59832541 855.30154309 562.60968521 852.89936352 562.62742901 C851.84561662 562.6130215 851.84561662 562.6130215 850.7705819 562.59832293 C847.82493911 562.64331338 846.01331663 562.80359539 843.66682625 564.65274334 C842.15373153 568.16715395 842.20093831 571.48616752 842.2468214 575.24409771 C842.24403484 576.48377799 842.24403484 576.48377799 842.24119198 577.74850231 C842.23858687 580.52703268 842.25746181 583.30500565 842.2761488 586.08346844 C842.27863327 588.07779097 842.27977919 590.07211555 842.27968884 592.06643963 C842.28240389 596.38515352 842.29469232 600.70370007 842.31423092 605.02237034 C842.34556682 611.96884882 842.35558584 618.91526482 842.36309338 625.86180401 C842.37764702 636.98950487 842.40653654 648.11711682 842.44134057 659.24477106 C842.62482931 718.1506731 842.80748956 777.06106282 842.40087795 835.96632862 C842.37119093 840.33443247 842.35016219 844.70243372 842.33724117 849.07061863 C842.32163306 854.15360592 842.28682609 859.23611466 842.23753214 864.31888366 C842.22265202 866.15439111 842.21403726 867.98996392 842.21276045 869.82553124 C842.18838737 890.33901293 840.29595167 912.18559408 825.55007458 927.4997282 C822.34601035 930.35580135 819.37594742 932.11495723 815.60085583 934.12863445 C814.61085583 934.78863445 813.62085583 935.44863445 812.60085583 936.12863445 C787.37664647 943.7763332 754.30745304 943.63295173 730.11257458 932.5309782 C717.53113744 925.50650552 712.39340031 913.80317994 708.55788708 900.5153532 C707.26795125 895.24427984 706.93734769 889.90216781 706.53835583 884.50363445 C706.38300112 882.49044285 706.22551189 880.47741461 706.06569958 878.46457195 C705.99987682 877.5833366 705.93405407 876.70210125 705.86623669 875.7941618 C705.63539916 873.10492029 705.63539916 873.10492029 705.0969007 870.38383514 C704.58222031 867.00634238 704.44252081 863.79536437 704.39875698 860.37989616 C704.38918176 859.72605644 704.37960654 859.07221671 704.36974116 858.39856366 C704.33914097 856.22237361 704.3152655 854.04616679 704.29159069 851.86989117 C704.27142793 850.30743739 704.25094615 848.7449877 704.23016977 847.18254197 C704.17530511 842.93887246 704.12703747 838.69515218 704.08060497 834.45138289 C704.05086723 831.76313188 704.01955398 829.07490334 703.98781729 826.38667524 C703.54055473 788.25842287 703.42057574 750.13146024 703.40066719 712.0009129 C703.39782944 706.60589621 703.3935845 701.21088111 703.38916302 695.81586552 C703.37708919 680.73961313 703.36673917 665.6633619 703.36328793 650.5871048 C703.36306836 649.6420026 703.36284879 648.69690041 703.36262257 647.72315876 C703.3624043 646.77669511 703.36218602 645.83023146 703.36196113 644.8550871 C703.36151775 642.93918947 703.36107118 641.02329185 703.36062145 639.10739422 C703.36040002 638.15717904 703.36017859 637.20696387 703.35995045 636.22795429 C703.35595543 620.64453979 703.3383083 605.06117063 703.31526193 589.47777382 C703.29154019 573.30356912 703.27908726 557.12938745 703.27792001 540.95516509 C703.2770086 531.94119826 703.27138352 522.92729235 703.2531004 513.91334248 C703.23769479 506.29633456 703.23258526 498.67940686 703.2408385 491.06238631 C703.24473073 487.18987458 703.2438821 483.31752465 703.22978115 479.44503307 C703.2146108 475.24108793 703.22294119 471.03750431 703.23336315 466.83354473 C703.22530675 465.62640452 703.21725034 464.4192643 703.2089498 463.17554408 C703.28582943 449.87585017 705.63757452 438.11882391 714.53444958 427.90988445 C720.3624798 422.17809693 726.88731874 419.54967164 734.60085583 417.12863445 C735.60454803 416.78294761 736.60824022 416.43726076 737.64234734 416.08109856 C742.43988214 414.72834894 747.19633343 414.8552564 752.14792919 414.88139629 C753.19788844 414.87898188 754.24784768 414.87656746 755.32962388 414.87407988 C758.84107799 414.86845271 762.3523494 414.87709862 765.86379528 414.88571453 C768.38371867 414.88464144 770.90364183 414.88270235 773.42356396 414.87996197 C779.5521322 414.87561908 785.68063281 414.8805489 791.80919371 414.88981227 C798.94441305 414.90020895 806.07962078 414.90012577 813.21484628 414.89963969 C825.94126517 414.89913947 838.6676589 414.90829121 851.39406872 414.92282391 C863.74921661 414.93692537 876.10434236 414.94399401 888.45949841 414.94333172 C889.2211994 414.94329176 889.9829004 414.94325181 890.76768325 414.94321064 C891.90824443 414.94315011 891.90824443 414.94315011 893.07184726 414.94308835 C907.13531787 414.94239915 921.19877906 414.94828296 935.26224661 414.95724157 C940.23923014 414.9602611 945.21621195 414.96132149 950.1931963 414.96177387 C956.88345014 414.96252584 963.57367737 414.96885469 970.2639246 414.97894001 C972.725464 414.98187111 975.18700609 414.98308915 977.64854717 414.98251247 C980.99529024 414.98202493 984.34196683 414.9876462 987.68870068 414.99492168 C989.16692404 414.99259878 989.16692404 414.99259878 990.6750105 414.99022895 C991.56642497 414.9934534 992.45783945 414.99667784 993.37626648 415 C994.53593641 415.00105664 994.53593641 415.00105664 995.71903402 415.00213462 C997.60085583 415.12863445 997.60085583 415.12863445 999.60085583 416.12863445 C1001.8849624 416.26083893 1004.17270494 416.33176114 1006.46023083 416.3747282 C1007.89008789 416.40615832 1009.31993793 416.43790963 1010.74978161 416.46994305 C1011.87661358 416.49299511 1011.87661358 416.49299511 1013.02620983 416.51651287 C1032.79865755 416.93857289 1052.21658483 417.94455144 1071.60085583 422.12863445 C1072.47355114 422.31329266 1073.34624645 422.49795086 1074.24538708 422.68820477 C1081.0400071 424.12660073 1087.82200468 425.61789121 1094.60085583 427.12863445 C1095.38138317 427.30007977 1096.16191051 427.47152508 1096.9660902 427.6481657 C1133.90887539 435.78417748 1171.14736097 449.90842169 1203.24929333 470.05832195 C1205.80790842 471.63881846 1208.35892688 473.10011924 1210.99929333 474.5309782 C1215.50204101 477.01152245 1219.67800803 479.82010531 1223.85085583 482.81613445 C1224.95481701 483.60322796 1224.95481701 483.60322796 1226.08108044 484.40622234 C1232.13302838 488.74442567 1238.09025518 493.1909825 1243.92898083 497.81271648 C1245.69414836 499.20206417 1247.47557963 500.56893781 1249.25710583 501.9372282 C1257.55026764 508.39899655 1265.15190096 515.39561323 1272.60085583 522.81613445 C1273.49232311 523.70220379 1274.3837904 524.58827312 1275.30227184 525.50119305 C1281.60085583 531.87090903 1281.60085583 531.87090903 1281.60085583 534.12863445 C1282.26085583 534.12863445 1282.92085583 534.12863445 1283.60085583 534.12863445 C1285.04616833 535.7809782 1285.04616833 535.7809782 1286.72585583 538.06613445 C1289.16118509 541.29985002 1291.66226904 544.34741605 1294.41335583 547.31613445 C1305.42241753 559.55549593 1314.69237708 574.23975558 1322.98366833 588.43332195 C1324.25511952 590.55240727 1325.56018022 592.62723954 1326.90554333 594.69894695 C1333.0264397 604.17159429 1338.02332622 613.82919283 1342.60085583 624.12863445 C1342.98757458 624.96781414 1343.37429333 625.80699383 1343.77273083 626.6716032 C1346.14156901 631.84615546 1348.23203108 637.13402955 1350.32229137 642.42575359 C1351.82164442 646.21668606 1353.39846941 649.9582351 1355.03835583 653.69113445 C1358.54496213 662.05737842 1361.10975097 670.76473129 1363.7707777 679.42795086 C1364.52336118 681.87650333 1365.28776625 684.32104333 1366.05398083 686.7653532 C1368.55398868 694.86603992 1370.46064934 702.88048696 1371.82741833 711.2497282 C1372.43476683 714.29567295 1373.17938403 717.03240473 1374.12819958 719.97238445 C1375.69894492 725.05077395 1376.1989491 729.90658663 1376.53835583 735.19113445 C1377.11594009 742.6110224 1378.25834656 749.51818265 1380.14245129 756.70650005 C1381.32738502 761.43544014 1381.93993659 765.94039447 1382.18679333 770.8278532 C1382.22388912 771.55000515 1382.26098492 772.2721571 1382.29920483 773.01619244 C1382.71018176 781.4979575 1382.91737844 789.98735199 1383.10354137 798.47653484 C1383.16337596 801.19204821 1383.22845163 803.90739948 1383.2942152 806.62277508 C1383.68032707 823.04963907 1383.63812046 839.43818969 1383.22854137 855.86398602 C1383.16359872 858.49379851 1383.1037416 861.12369445 1383.0442152 863.75363445 C1382.27376938 896.3792716 1382.27376938 896.3792716 1379.72585583 906.31613445 C1378.05067672 913.47344301 1376.95832738 920.57968382 1376.10085583 927.87863445 C1375.15457519 935.81560423 1373.74364889 943.19917838 1371.49538708 950.87863445 C1370.67067045 953.87498482 1370.14857251 956.74183128 1369.72585583 959.81613445 C1367.89852067 971.87328341 1363.52864872 983.73493265 1359.55788708 995.23019695 C1358.73890039 997.71055663 1358.00658902 1000.19340611 1357.28444958 1002.7028532 C1355.48998998 1008.71677818 1353.2023703 1014.50139123 1350.85085583 1020.31613445 C1350.18606213 1021.96706097 1350.18606213 1021.96706097 1349.50783825 1023.65133953 C1346.13649099 1031.95487687 1342.54794982 1040.08336153 1338.60085583 1048.12863445 C1338.0620277 1049.2681657 1337.52319958 1050.40769695 1336.96804333 1051.58175945 C1333.47524971 1058.82727551 1329.5551983 1065.5968065 1325.22707653 1072.36740398 C1322.81055139 1076.153924 1320.55895305 1079.95657247 1318.47585583 1083.94113445 C1315.7048916 1089.12997605 1312.38758992 1093.73182041 1308.8567152 1098.42648602 C1307.40236701 1100.39765934 1305.993119 1102.39745714 1304.58523083 1104.40207195 C1298.80559578 1112.59993893 1292.91901521 1120.29401596 1285.99538708 1127.5544157 C1283.94843394 1129.75497381 1282.17523806 1131.9520628 1280.41335583 1134.37863445 C1271.74103249 1145.79615367 1260.76562036 1155.42883071 1249.25808239 1163.86838055 C1247.51838777 1165.19134808 1245.85165901 1166.57607641 1244.18679333 1167.9919157 C1227.85062891 1181.85350253 1209.49377667 1194.13901686 1190.52175426 1204.11007977 C1188.4420369 1205.21284805 1186.38517047 1206.35262632 1184.32741833 1207.49582195 C1164.35238787 1218.45909184 1142.5855296 1228.03646961 1120.60085583 1234.12863445 C1119.72002331 1234.37645672 1118.83919079 1234.62427898 1117.93166637 1234.87961102 C1105.8219886 1238.23870328 1093.5935249 1241.18868986 1081.26076794 1243.60617352 C1079.40719506 1243.970253 1077.55524284 1244.34264004 1075.70461559 1244.72140789 C1062.62445561 1247.37953028 1049.69930698 1249.47479608 1036.36913204 1250.26859093 C1035.70155298 1250.30928451 1035.03397392 1250.34997809 1034.34616519 1250.39190481 C1015.59342391 1251.50753522 996.82030291 1251.41436911 978.04164729 1251.39177092 C972.65134101 1251.38753934 967.26104747 1251.39503657 961.87074447 1251.40092343 C952.45589728 1251.40962514 943.04107186 1251.41101924 933.62622166 1251.40742016 C919.626379 1251.40208258 905.62655718 1251.40823865 891.62671679 1251.41650309 C865.89497165 1251.43127742 840.16323608 1251.43359849 814.43148753 1251.43118271 C810.79564252 1251.43084422 807.1597975 1251.43052213 803.52395248 1251.43021703 C802.80167975 1251.43015598 802.07940702 1251.43009494 801.33524723 1251.43003205 C785.28566237 1251.42875686 769.23607883 1251.43136737 753.18649436 1251.43474309 C749.51542609 1251.43551383 745.8443578 1251.43625858 742.17328952 1251.43700811 C740.69984626 1251.4373098 739.22640299 1251.43761169 737.75295973 1251.43791375 C737.02257815 1251.43806343 736.29219657 1251.43821311 735.53968222 1251.43836733 C734.06225571 1251.43867086 732.58482921 1251.43897555 731.1074027 1251.43928137 C689.2363505 1251.44794376 647.36529947 1251.45260548 605.49424648 1251.44833374 C604.72024509 1251.44825568 603.9462437 1251.44817763 603.14878772 1251.4480972 C594.5188839 1251.4472245 585.88898008 1251.44629522 577.25907627 1251.44534657 C576.47999755 1251.44526106 575.70091883 1251.44517555 574.89823166 1251.44508745 C568.42629257 1251.44437682 568.42629257 1251.44437682 565.44634214 1251.44404523 C515.55887459 1251.43850331 465.67142552 1251.4460736 415.7839613 1251.46481609 C403.19883891 1251.46953846 390.61371651 1251.47421901 378.02859402 1251.47865295 C376.86615516 1251.47906294 376.86615516 1251.47906294 375.68023268 1251.4794812 C351.79829351 1251.48785146 327.91635587 1251.49253202 304.03441525 1251.49336052 C303.28475922 1251.49338689 302.53510319 1251.49341325 301.76273032 1251.49344042 C285.30737225 1251.49398116 268.8520143 1251.49360882 252.39665628 1251.4924007 C246.50937716 1251.4919751 240.62209804 1251.49160997 234.73481891 1251.49127126 C233.27031353 1251.49118596 231.80580814 1251.49109703 230.34130276 1251.49100444 C207.01560293 1251.48955626 183.68991568 1251.4966775 160.36421887 1251.5080084 C136.23413775 1251.51965433 112.10408094 1251.52022527 87.97399947 1251.50816498 C74.06352008 1251.50152391 60.15309984 1251.50319641 46.24262515 1251.51675349 C36.95610632 1251.52497589 27.66963197 1251.52232932 18.38311678 1251.51077823 C13.08945511 1251.50450034 7.79590918 1251.50297633 2.50225404 1251.51464156 C-2.3147985 1251.52515917 -7.13163695 1251.52183114 -11.94867795 1251.50753703 C-13.6788773 1251.50481221 -15.40909379 1251.50709201 -17.13927702 1251.51504418 C-26.60780107 1251.55558718 -35.290557 1251.04360564 -44.39914417 1248.12863445 C-46.05236683 1247.61623211 -46.05236683 1247.61623211 -47.73898792 1247.0934782 C-65.05406379 1240.24556098 -76.11973416 1227.71708416 -83.59348011 1211.03390789 C-85.37575337 1206.81910167 -86.52630957 1202.61093548 -87.39914417 1198.12863445 C-87.60152699 1197.19664227 -87.8039098 1196.26465008 -88.01242542 1195.3044157 C-91.89242876 1174.69024832 -90.19308399 1153.23725646 -80.14914417 1134.69113445 C-79.748568 1133.94597576 -79.34799183 1133.20081707 -78.93527699 1132.43307781 C-75.79793753 1126.68483595 -72.3194452 1121.37546457 -68.39914417 1116.12863445 C-66.2862674 1113.23910495 -64.1857989 1110.34064287 -62.08664417 1107.44113445 C-61.52195423 1106.66221844 -60.95726429 1105.88330242 -60.37546253 1105.08078289 C-55.6140181 1098.48643835 -51.07127215 1091.7679231 -46.60959339 1084.9684782 C-44.51338329 1081.78230649 -42.39221836 1078.61279406 -40.27414417 1075.44113445 C-39.43549096 1074.18339632 -38.596947 1072.92558534 -37.75851917 1071.66769695 C-31.52414417 1062.31613445 -31.52414417 1062.31613445 -29.58273792 1059.40988445 C-27.92200479 1056.91432841 -26.26947517 1054.41403761 -24.62180042 1051.90988445 C-19.39877265 1043.99357328 -14.06696059 1036.21161734 -8.40598011 1028.60202312 C-3.92610255 1022.55321945 0.22823199 1016.30765198 4.35818005 1010.01681805 C6.46553645 1006.81479557 8.59701522 1003.628895 10.72585583 1000.44113445 C11.56190495 999.18730263 12.39784458 997.93339778 13.23366833 996.6794157 C16.68939749 991.49582195 20.14512666 986.3122282 23.60085583 981.12863445 C23.99273083 980.54082195 24.38460583 979.95300945 24.78835583 979.34738445 C25.40710583 978.41925945 25.40710583 978.41925945 26.03835583 977.47238445 C26.66858654 976.52685711 26.66858654 976.52685711 27.31154919 975.5622282 C28.17128737 974.27286512 29.03147649 972.9838026 29.89211559 971.6950407 C31.8147256 968.81499079 33.73019556 965.93126052 35.62819958 963.03488445 C39.26109541 957.50753373 43.03749436 952.12738988 46.97585583 946.81613445 C52.00461799 940.03016772 56.72369535 933.07617406 61.35818005 926.01681805 C63.46553645 922.81479556 65.59701619 919.62889566 67.72585583 916.44113445 C68.56450908 915.18339635 69.40305296 913.92558531 70.24148083 912.66769695 C76.47585583 903.31613445 76.47585583 903.31613445 78.41726208 900.40988445 C80.07799521 897.91432841 81.73052483 895.41403761 83.37819958 892.90988445 C88.60122735 884.99357328 93.93303941 877.21161734 99.59401989 869.60202312 C104.07389745 863.55321945 108.22823199 857.30765198 112.35818005 851.01681805 C114.46553645 847.81479557 116.59701522 844.628895 118.72585583 841.44113445 C119.56190495 840.18730263 120.39784458 838.93339778 121.23366833 837.6794157 C126.41726208 829.90402508 126.41726208 829.90402508 131.60085583 822.12863445 C131.99273083 821.54082195 132.38460583 820.95300945 132.78835583 820.34738445 C133.40710583 819.41925945 133.40710583 819.41925945 134.03835583 818.47238445 C134.66858654 817.52685711 134.66858654 817.52685711 135.31154919 816.5622282 C136.17128737 815.27286512 137.03147649 813.9838026 137.89211559 812.6950407 C139.8147256 809.81499079 141.73019556 806.93126052 143.62819958 804.03488445 C147.26109541 798.50753373 151.03749436 793.12738988 154.97585583 787.81613445 C160.00461799 781.03016772 164.72369535 774.07617406 169.35818005 767.01681805 C171.46553645 763.81479556 173.59701619 760.62889566 175.72585583 757.44113445 C176.56450908 756.18339635 177.40305296 754.92558531 178.24148083 753.66769695 C184.47585583 744.31613445 184.47585583 744.31613445 186.41726208 741.40988445 C188.07799521 738.91432841 189.73052483 736.41403761 191.37819958 733.90988445 C196.60122735 725.99357328 201.93303941 718.21161734 207.59401989 710.60202312 C212.07389745 704.55321945 216.22823199 698.30765198 220.35818005 692.01681805 C222.46553645 688.81479557 224.59701522 685.628895 226.72585583 682.44113445 C227.56190495 681.18730263 228.39784458 679.93339778 229.23366833 678.6794157 C232.68939749 673.49582195 236.14512666 668.3122282 239.60085583 663.12863445 C239.99273083 662.54082195 240.38460583 661.95300945 240.78835583 661.34738445 C241.20085583 660.72863445 241.61335583 660.10988445 242.03835583 659.47238445 C242.66858654 658.52685711 242.66858654 658.52685711 243.31154919 657.5622282 C244.17128737 656.27286512 245.03147649 654.9838026 245.89211559 653.6950407 C247.8147256 650.81499079 249.73019556 647.93126052 251.62819958 645.03488445 C255.26109541 639.50753373 259.03749436 634.12738988 262.97585583 628.81613445 C268.00461799 622.03016772 272.72369535 615.07617406 277.35818005 608.01681805 C279.46553645 604.81479556 281.59701619 601.62889566 283.72585583 598.44113445 C284.56450908 597.18339635 285.40305296 595.92558531 286.24148083 594.66769695 C292.47585583 585.31613445 292.47585583 585.31613445 294.41726208 582.40988445 C296.07799521 579.91432841 297.73052483 577.41403761 299.37819958 574.90988445 C304.60122735 566.99357328 309.93303941 559.21161734 315.59401989 551.60202312 C320.07389745 545.55321945 324.22823199 539.30765198 328.35818005 533.01681805 C330.46553645 529.81479557 332.59701522 526.628895 334.72585583 523.44113445 C335.56190495 522.18730263 336.39784458 520.93339778 337.23366833 519.6794157 C340.68939749 514.49582195 344.14512666 509.3122282 347.60085583 504.12863445 C347.99273083 503.54082195 348.38460583 502.95300945 348.78835583 502.34738445 C349.20085583 501.72863445 349.61335583 501.10988445 350.03835583 500.47238445 C350.45850964 499.84203289 350.87866344 499.21168133 351.31154919 498.5622282 C352.17128737 497.27286512 353.03147649 495.9838026 353.89211559 494.6950407 C355.8147256 491.81499079 357.73019556 488.93126052 359.62819958 486.03488445 C363.26109541 480.50753373 367.03749436 475.12738988 370.97585583 469.81613445 C376.00461799 463.03016772 380.72369535 456.07617406 385.35818005 449.01681805 C387.46553645 445.81479556 389.59701619 442.62889566 391.72585583 439.44113445 C392.56450908 438.18339635 393.40305296 436.92558531 394.24148083 435.66769695 C400.47585583 426.31613445 400.47585583 426.31613445 402.41726208 423.40988445 C404.07799521 420.91432841 405.73052483 418.41403761 407.37819958 415.90988445 C412.60122735 407.99357328 417.93303941 400.21161734 423.59401989 392.60202312 C428.07389745 386.55321945 432.22823199 380.30765198 436.35818005 374.01681805 C438.46553645 370.81479557 440.59701522 367.628895 442.72585583 364.44113445 C443.56190495 363.18730263 444.39784458 361.93339778 445.23366833 360.6794157 C448.68939749 355.49582195 452.14512666 350.3122282 455.60085583 345.12863445 C455.99273083 344.54082195 456.38460583 343.95300945 456.78835583 343.34738445 C457.20085583 342.72863445 457.61335583 342.10988445 458.03835583 341.47238445 C458.45850964 340.84203289 458.87866344 340.21168133 459.31154919 339.5622282 C460.17128737 338.27286512 461.03147649 336.9838026 461.89211559 335.6950407 C463.8147256 332.81499079 465.73019556 329.93126052 467.62819958 327.03488445 C471.26109541 321.50753373 475.03749436 316.12738988 478.97585583 310.81613445 C484.00461799 304.03016772 488.72369535 297.07617406 493.35818005 290.01681805 C495.46553645 286.81479556 497.59701619 283.62889566 499.72585583 280.44113445 C500.56450908 279.18339635 501.40305296 277.92558531 502.24148083 276.66769695 C508.47585583 267.31613445 508.47585583 267.31613445 510.41726208 264.40988445 C512.07799521 261.91432841 513.73052483 259.41403761 515.37819958 256.90988445 C520.60122735 248.99357328 525.93303941 241.21161734 531.59401989 233.60202312 C536.07389745 227.55321945 540.22823199 221.30765198 544.35818005 215.01681805 C546.465537 211.81479473 548.59711032 208.62895936 550.72585583 205.44113445 C551.56577694 204.18076934 552.40562225 202.9203537 553.24538708 201.65988445 C554.67717065 199.51192101 556.11217333 197.36626928 557.55007458 195.22238445 C561.86350027 188.78389579 566.11628488 182.30670857 570.35085583 175.81613445 C570.90620007 174.96768963 571.4615443 174.1192448 572.03371716 173.24508953 C578.3281088 163.68909851 578.3281088 163.68909851 582.60085583 153.12863445 C576.05404069 152.29093789 569.67882815 151.984405 563.08288002 151.99555588 C562.05511449 151.99331285 561.02734896 151.99106983 559.96843901 151.98875883 C556.52635584 151.98244465 553.08431077 151.98318164 549.6422224 151.98387432 C547.14877645 151.98073933 544.65533102 151.97716423 542.16188627 151.97318691 C536.74156349 151.96552102 531.32125135 151.96090318 525.90092373 151.95897007 C517.84071021 151.95606573 509.78050993 151.94743685 501.7203023 151.93755695 C488.15869377 151.921055 474.59708472 151.90886234 461.03547001 151.898839 C441.66236735 151.88441619 422.28927933 151.86165611 402.91618711 151.83717388 C395.14063147 151.82738422 387.36507548 151.81786322 379.5895195 151.80834389 C378.72569885 151.80728512 377.8618782 151.80622636 376.97188116 151.80513551 C356.41616072 151.77999156 335.86043761 151.75749152 315.30471325 151.73581219 C313.95577384 151.73438653 313.95577384 151.73438653 312.57958314 151.73293207 C291.59206687 151.71077364 270.60454982 151.68989561 249.61703014 151.67123699 C248.71399683 151.67043324 247.81096351 151.66962949 246.88056555 151.66880138 C242.32687555 151.66475049 237.77318555 151.66070893 233.21949554 151.65666812 C232.31949409 151.65586913 231.41949264 151.65507014 230.49221842 151.65424694 C228.6756461 151.65263462 226.85907379 151.6510238 225.04250147 151.64941447 C195.03957226 151.62279272 165.03665641 151.5894344 135.03374303 151.54863632 C130.79828186 151.54288632 126.56282058 151.53722772 122.3273592 151.53163242 C121.0770117 151.52997972 121.0770117 151.52997972 119.80140465 151.52829362 C106.37948002 151.51077957 92.95755935 151.50061879 79.53562566 151.49337997 C66.05263589 151.4859935 52.56966874 151.47160104 39.08669417 151.44995422 C31.07434193 151.43732066 23.06202963 151.4302897 15.04966724 151.43120441 C9.07138894 151.43128205 3.09317585 151.42102346 -2.8850873 151.40671276 C-5.30687921 151.40254676 -7.72867974 151.40177134 -10.15047348 151.40467686 C-13.43607736 151.40813564 -16.7214303 151.39938783 -20.00700951 151.38755417 C-20.95244542 151.3914897 -21.89788133 151.39542523 -22.87196681 151.39948002 C-28.39646621 151.36393232 -33.08436731 150.63701718 -38.39914417 149.12863445 C-40.10400111 148.97791522 -41.81343591 148.86839081 -43.52414417 148.81613445 C-54.56167132 147.91167042 -64.3960788 143.74203747 -72.39914417 136.12863445 C-73.17000355 135.4325407 -73.94086292 134.73644695 -74.73508167 134.01925945 C-90.24689464 118.66204927 -89.54705504 96.21948436 -89.64914417 75.87863445 C-89.65468311 75.14960918 -89.66022205 74.42058392 -89.66592884 73.66946697 C-89.73602849 61.0113214 -88.78801474 48.86890426 -84.64914417 36.81613445 C-84.25227406 35.65706585 -84.25227406 35.65706585 -83.84738636 34.47458172 C-81.8423534 28.87511689 -79.65675106 24.36697615 -75.39914417 20.12863445 C-74.72625355 19.39644695 -74.05336292 18.66425945 -73.36008167 17.90988445 C-61.65626463 6.16692421 -45.9080168 2.04271138 -29.77414417 1.56613445 C-27.96934596 1.5055448 -26.16465033 1.44180765 -24.36008167 1.3747282 C-23.57423695 1.35079998 -22.78839222 1.32687176 -21.97873402 1.30221844 C-19.33646535 1.16980348 -19.33646535 1.16980348 -16.51286632 0.62582511 C-11.0348735 -0.16418982 -5.52280389 -0.00972767 0 0 Z " fill="#FEFEFE" transform="translate(410.39914417266846,432.8713655471802)"/>
<path d="M0 0 C0.33 0 0.66 0 1 0 C1 38.94 1 77.88 1 118 C-37.94 118 -76.88 118 -117 118 C-117 117.67 -117 117.34 -117 117 C-116.01644531 116.86464844 -115.03289062 116.72929687 -114.01953125 116.58984375 C-79.61278747 111.43051549 -47.32121148 93.8849173 -26.26220703 65.76660156 C-12.19429378 46.07696514 -2.80881997 24.10554453 0 0 Z " fill="#000000" transform="translate(2115,1998)"/>
<path d="M0 0 C0.33 0 0.66 0 1 0 C1.13535156 0.98355469 1.27070313 1.96710938 1.41015625 2.98046875 C6.56948451 37.38721253 24.1150827 69.67878852 52.23339844 90.73779297 C71.92303486 104.80570622 93.89445547 114.19118003 118 117 C118 117.33 118 117.66 118 118 C79.06 118 40.12 118 0 118 C0 79.06 0 40.12 0 0 Z " fill="#000000" transform="translate(0,1998)"/>
<path d="M0 0 C38.94 0 77.88 0 118 0 C118 38.94 118 77.88 118 118 C117.67 118 117.34 118 117 118 C116.86464844 117.01644531 116.72929687 116.03289062 116.58984375 115.01953125 C111.43051549 80.61278747 93.8849173 48.32121148 65.76660156 27.26220703 C46.07696514 13.19429378 24.10554453 3.80881997 0 1 C0 0.67 0 0.34 0 0 Z " fill="#000000" transform="translate(1998,0)"/>
<path d="M0 0 C38.94 0 77.88 0 118 0 C118 0.33 118 0.66 118 1 C117.01644531 1.13535156 116.03289062 1.27070313 115.01953125 1.41015625 C80.61278747 6.56948451 48.32121148 24.1150827 27.26220703 52.23339844 C13.19429378 71.92303486 3.80881997 93.89445547 1 118 C0.67 118 0.34 118 0 118 C0 79.06 0 40.12 0 0 Z " fill="#000000" transform="translate(0,0)"/>
<path d="M0 0 C345.18 0 690.36 0 1046 0 C1045.67 0.99 1045.34 1.98 1045 3 C700.15 3 355.3 3 0 3 C0 2.01 0 1.02 0 0 Z " fill="#A69EEC" transform="translate(379,1684)"/>
<path d="M0 0 C243.54 0 487.08 0 738 0 C738 0.99 738 1.98 738 3 C494.79 3 251.58 3 1 3 C0.67 2.01 0.34 1.02 0 0 Z " fill="#8D7EE9" transform="translate(399,430)"/>
<path d="M0 0 C255.75 0.33 511.5 0.66 775 1 C771.64892514 3.23404991 770.58885471 3.2496643 766.67731792 3.24839699 C765.56397796 3.25289158 764.450638 3.25738617 763.30356047 3.26201695 C762.07288683 3.25676292 760.84221319 3.2515089 759.57424641 3.24609566 C758.26736039 3.24840335 756.96047437 3.25071103 755.61398575 3.25308865 C751.96266207 3.25925203 748.31144899 3.25285562 744.66013351 3.24453239 C740.69686114 3.23768583 736.73360041 3.2424014 732.77032584 3.24568737 C725.81639303 3.249843 718.86249437 3.24653344 711.90856552 3.23841095 C701.56824936 3.22636647 691.22795484 3.22573696 680.88763295 3.22749493 C663.49560123 3.23012604 646.10358469 3.22342735 628.71155739 3.21146011 C611.48465716 3.19963681 594.25776325 3.1919304 577.03085899 3.18975449 C575.9608055 3.18961701 574.890752 3.18947953 573.78827264 3.18933788 C568.35428485 3.18866124 562.92029706 3.18805846 557.48630925 3.18748413 C518.97076762 3.18328034 480.45523424 3.16979734 441.93969727 3.15087891 C404.51619511 3.13251805 367.09269521 3.1183469 329.66918945 3.10986328 C328.51617287 3.10960023 327.36315628 3.10933718 326.1751998 3.10906615 C314.59641394 3.10642917 303.01762805 3.10387754 291.43884216 3.10138843 C267.85031583 3.09631565 244.26178966 3.09067314 220.67326355 3.08468628 C219.04632518 3.08427441 219.04632518 3.08427441 217.38651937 3.08385422 C144.92434281 3.06544463 72.46217084 3.03375328 0 3 C0 2.01 0 1.02 0 0 Z " fill="#887DE6" transform="translate(379,1684)"/>
<path d="M0 0 C73.63897479 -0.034265 147.27795054 -0.06606587 220.91693115 -0.08468628 C222.00610604 -0.08496239 223.09528094 -0.08523851 224.21746113 -0.08552299 C247.88585186 -0.09150824 271.55424267 -0.09704868 295.22263362 -0.10213066 C306.82892373 -0.10462542 318.43521382 -0.10721852 330.04150391 -0.10986328 C331.77398945 -0.11025556 331.77398945 -0.11025556 333.54147471 -0.11065576 C371.00541751 -0.11918463 408.46935429 -0.13421185 445.93329344 -0.15259444 C484.41931044 -0.17144432 522.9053241 -0.18376733 561.39134564 -0.18782998 C566.82216368 -0.18840632 572.25298172 -0.1890576 577.68379974 -0.18975449 C578.75270537 -0.18988933 579.821611 -0.19002418 580.92290771 -0.19016311 C598.15750948 -0.19253028 615.39210097 -0.20181645 632.62669854 -0.21366407 C649.93621552 -0.22541647 667.24572227 -0.22994151 684.5552431 -0.22700275 C694.85016825 -0.22547691 705.14505606 -0.22957876 715.43997449 -0.24159509 C722.30738571 -0.24906607 729.17477233 -0.24934772 736.04218521 -0.24366363 C739.96127877 -0.2406292 743.88030149 -0.24083417 747.7993876 -0.24976636 C752.01150545 -0.25929398 756.22345923 -0.25351725 760.43558121 -0.24609566 C762.28005766 -0.2539767 762.28005766 -0.2539767 764.16179627 -0.26201695 C765.83732728 -0.25527507 765.83732728 -0.25527507 767.54670739 -0.24839699 C768.51066765 -0.24870895 769.47462791 -0.24902092 770.46779908 -0.24934233 C773.10059013 0.00990497 774.74123966 0.65975484 777 2 C774.04335481 3.4783226 771.25770263 3.06032783 768 3 C768 2.67 768 2.34 768 2 C514.56 1.67 261.12 1.34 0 1 C0 0.67 0 0.34 0 0 Z " fill="#9B8FEE" transform="translate(383,1684)"/>
<path d="M0 0 C88.11 0 176.22 0 267 0 C267 0.33 267 0.66 267 1 C154.14 1.495 154.14 1.495 39 2 C39 2.33 39 2.66 39 3 C33.76728431 3.07403712 28.53487199 3.12854783 23.30175781 3.16479492 C21.52077933 3.17990173 19.73983816 3.20038835 17.95898438 3.22631836 C15.40225022 3.26261943 12.8460069 3.27970688 10.2890625 3.29296875 C9.49005524 3.30845261 8.69104797 3.32393646 7.86782837 3.33988953 C5.62353516 3.34057617 5.62353516 3.34057617 2 3 C1.34 2.01 0.68 1.02 0 0 Z " fill="#B6ADF3" transform="translate(1156,1684)"/>
<path d="M0 0 C12.54 0 25.08 0 38 0 C38.495 1.485 38.495 1.485 39 3 C33.76728431 3.07403712 28.53487199 3.12854783 23.30175781 3.16479492 C21.52077933 3.17990173 19.73983816 3.20038835 17.95898438 3.22631836 C15.40225022 3.26261943 12.8460069 3.27970688 10.2890625 3.29296875 C9.49005524 3.30845261 8.69104797 3.32393646 7.86782837 3.33988953 C5.62353516 3.34057617 5.62353516 3.34057617 2 3 C1.34 2.01 0.68 1.02 0 0 Z " fill="#CDC8F4" transform="translate(1156,1684)"/>
<path d="M0 0 C0.99 0 1.98 0 3 0 C3.07409401 3.95092059 3.12857406 7.90157294 3.16479492 11.85302734 C3.18732251 13.85919374 3.2254357 15.86516526 3.26367188 17.87109375 C3.27333984 19.12792969 3.28300781 20.38476562 3.29296875 21.6796875 C3.3086792 22.84226074 3.32438965 24.00483398 3.34057617 25.20263672 C3.22818604 26.1257666 3.1157959 27.04889648 3 28 C2.01 28.66 1.02 29.32 0 30 C0 20.1 0 10.2 0 0 Z " fill="#8577E8" transform="translate(318,496)"/>
<path d="M0 0 C0.99290126 2.97870377 1.05524548 4.59182885 0.87890625 7.66796875 C0.83056641 8.56064453 0.78222656 9.45332031 0.73242188 10.37304688 C0.67634766 11.30181641 0.62027344 12.23058594 0.5625 13.1875 C0.51029297 14.12787109 0.45808594 15.06824219 0.40429688 16.03710938 C0.27468082 18.35841501 0.13971819 20.67928409 0 23 C-0.99 23.33 -1.98 23.66 -3 24 C-3.08703823 20.56265937 -3.14040272 17.12560163 -3.1875 13.6875 C-3.21263672 12.71103516 -3.23777344 11.73457031 -3.26367188 10.72851562 C-3.27333984 9.79072266 -3.28300781 8.85292969 -3.29296875 7.88671875 C-3.3086792 7.02264404 -3.32438965 6.15856934 -3.34057617 5.26831055 C-2.93240678 2.54981464 -2.10407096 1.69636171 0 0 Z " fill="#7667E6" transform="translate(321,1594)"/>
<path d="M0 0 C6.27 0.33 12.54 0.66 19 1 C19.33 1.66 19.66 2.32 20 3 C13.4 3 6.8 3 0 3 C0 2.01 0 1.02 0 0 Z " fill="#7B6FE6" transform="translate(379,1684)"/>
<path d="M0 0 C0.99 0.33 1.98 0.66 3 1 C3 4.96 3 8.92 3 13 C2.01 13 1.02 13 0 13 C0 8.71 0 4.42 0 0 Z " fill="#7160E4" transform="translate(1794,1257)"/>
<path d="M0 0 C-0.33 0.99 -0.66 1.98 -1 3 C-3.29141286 3.05384521 -5.58318188 3.09272087 -7.875 3.125 C-9.78925781 3.15980469 -9.78925781 3.15980469 -11.7421875 3.1953125 C-15 3 -15 3 -17 1 C-14.54171921 0.83252588 -12.08338135 0.6659856 -9.625 0.5 C-8.92632813 0.45230469 -8.22765625 0.40460938 -7.5078125 0.35546875 C-2.2265625 0 -2.2265625 0 0 0 Z " fill="#9084E9" transform="translate(1425,1684)"/>
<path d="M0 0 C8.57142857 -0.28571429 8.57142857 -0.28571429 12 2 C8.95016004 3.52491998 6.3576631 3.23562548 3 3 C1.0625 1.5 1.0625 1.5 0 0 Z " fill="#A59CED" transform="translate(1148,1684)"/>
<path d="M0 0 C-0.33 0.99 -0.66 1.98 -1 3 C-0.01 3.33 0.98 3.66 2 4 C-4.625 3.25 -4.625 3.25 -8 1 C-5.07175348 0.02391783 -3.04386724 -0.08226668 0 0 Z " fill="#6350E2" transform="translate(1142,430)"/>
<path d="M0 0 C2.97 0.33 5.94 0.66 9 1 C7 3 7 3 3.875 3.125 C2.451875 3.063125 2.451875 3.063125 1 3 C0.67 2.01 0.34 1.02 0 0 Z " fill="#6E5CE5" transform="translate(399,430)"/>
</svg>
